<?xml version="1.0" standalone="no"?><!DOCTYPE svg PUBLIC "-//W3C//DTD SVG 1.1//EN" "http://www.w3.org/Graphics/SVG/1.1/DTD/svg11.dtd"><svg t="1536823678937" class="icon" style="" viewBox="0 0 1026 1024" version="1.1" xmlns="http://www.w3.org/2000/svg" p-id="1008" xmlns:xlink="http://www.w3.org/1999/xlink" width="128.25" height="128"><defs><style type="text/css"></style></defs><path d="M974.428776 216.778558H264.359341c-25.942428 0-46.970312-21.027884-46.970312-46.970312s21.027884-46.970312 46.970312-46.970312h710.069435a46.970312 46.970312 0 0 1 0 93.940624zM974.428776 563.187175H264.359341a46.970312 46.970312 0 0 1 0-93.940624h710.069435a46.970312 46.970312 0 0 1 0 93.940624zM974.428776 901.967477H264.359341a46.970312 46.970312 0 0 1 0-93.940625h710.069435a46.975442 46.975442 0 0 1 0 93.940625z" p-id="1009" fill="#000000"></path><path d="M52.628706 169.808246m-46.970312 0a46.970312 46.970312 0 1 0 93.940624 0 46.970312 46.970312 0 1 0-93.940624 0Z" p-id="1010" fill="#000000"></path><path d="M52.628706 512.40527m-46.970312 0a46.970312 46.970312 0 1 0 93.940624 0 46.970312 46.970312 0 1 0-93.940624 0Z" p-id="1011" fill="#000000"></path><path d="M52.628706 855.002294m-46.970312 0a46.970312 46.970312 0 1 0 93.940624 0 46.970312 46.970312 0 1 0-93.940624 0Z" p-id="1012" fill="#000000"></path></svg>