<?xml version="1.0" standalone="no"?><!DOCTYPE svg PUBLIC "-//W3C//DTD SVG 1.1//EN" "http://www.w3.org/Graphics/SVG/1.1/DTD/svg11.dtd"><svg t="1536823392762" class="icon" style="" viewBox="0 0 1024 1024" version="1.1" xmlns="http://www.w3.org/2000/svg" p-id="892" xmlns:xlink="http://www.w3.org/1999/xlink" width="128" height="128"><defs><style type="text/css"></style></defs><path d="M659.30666667 938.66666667a61.184 61.184 0 0 1-44.864-19.072c-14.72-16.192-61.568-58.24-99.84-58.24-38.016 0-85.504 42.24-99.2 57.088a61.184 61.184 0 0 1-67.328 14.08l-1.28-0.448-116.352-65.088-1.152-0.832a55.872 55.872 0 0 1-18.752-67.456c0.064-0.192 10.752-24.768 10.752-47.232a123.52 123.52 0 0 0-123.392-123.328h-4.864c-19.52 0-35.392-17.28-40.448-44.096C52.26666667 581.86666667 42.66666667 531.05066667 42.66666667 491.05066667c0-40.064 9.536-90.88 9.92-92.992 5.12-27.136 21.376-44.544 41.152-44.096h4.16A123.52 123.52 0 0 0 221.22666667 230.57066667c0-22.4-10.688-46.976-10.816-47.232a55.68 55.68 0 0 1 18.944-67.392l1.216-0.832 122.816-67.456 1.28-0.576a62.336 62.336 0 0 1 67.2 13.888c14.528 15.296 60.48 54.848 97.664 54.848 36.8 0 82.496-38.784 96.96-53.76a62.336 62.336 0 0 1 67.264-13.44l1.28 0.64 118.592 65.92 1.152 0.768a55.808 55.808 0 0 1 18.816 67.456c-0.064 0.192-10.752 24.768-10.752 47.168a123.52 123.52 0 0 0 123.392 123.392h4.096c19.84-0.448 36.096 16.96 41.216 44.096 0.384 2.112 9.92 52.928 9.92 92.992 0 40-9.536 90.88-9.92 92.992-5.12 27.136-21.376 44.48-41.216 44.096h-4.096a123.52 123.52 0 0 0-123.392 123.328c0 22.4 10.688 47.04 10.752 47.232a55.808 55.808 0 0 1-18.816 67.456l-1.216 0.832-120.64 66.624-1.28 0.576a56.32 56.32 0 0 1-22.4 4.48z m-3.648-56.832a7.68 7.68 0 0 0 3.84 0.96l112.704-62.336c-2.688-6.272-15.168-36.992-15.168-68.928a179.456 179.456 0 0 1 169.856-179.008c1.344-7.552 8.768-49.792 8.768-81.472 0-31.68-7.424-73.92-8.768-81.472a179.456 179.456 0 0 1-169.856-179.008c0-32 12.48-62.72 15.168-68.992l-110.848-61.632h-0.448c-1.92 0-3.648 0.64-4.288 1.088-1.856 1.92-17.92 18.24-40.96 34.432-34.24 24.064-66.56 36.224-96.064 36.224-29.888 0-62.464-12.416-96.832-36.928a313.792 313.792 0 0 1-41.216-35.072 8.832 8.832 0 0 0-4.736-1.152l-114.816 63.104c2.752 6.4 15.168 36.992 15.168 68.928A179.456 179.456 0 0 1 107.30666667 409.57866667c-1.344 7.552-8.768 49.792-8.768 81.472 0 31.68 7.424 73.92 8.768 81.408a179.456 179.456 0 0 1 169.856 179.008c0 32.128-12.544 62.912-15.232 69.12l108.736 60.8a7.68 7.68 0 0 0 3.84-0.896c2.048-2.24 18.304-19.456 41.6-36.608 34.944-25.536 68.032-38.464 98.56-38.464 30.72 0 64.064 13.184 99.2 39.232 23.488 17.472 39.744 34.944 41.792 37.184zM514.98666667 654.69866667a164.48 164.48 0 0 1-164.288-164.288A164.48 164.48 0 0 1 514.98666667 326.18666667a164.48 164.48 0 0 1 164.352 164.288 164.48 164.48 0 0 1-164.352 164.288z m0-272.64c-59.776 0-108.352 48.64-108.352 108.352 0 59.776 48.64 108.416 108.352 108.416 59.84 0 108.416-48.64 108.416-108.416 0-59.776-48.64-108.416-108.416-108.416z" p-id="893"></path></svg>